<?xml version="1.0" standalone="no"?><!DOCTYPE svg PUBLIC "-//W3C//DTD SVG 1.1//EN" "http://www.w3.org/Graphics/SVG/1.1/DTD/svg11.dtd"><svg t="1735733560443" class="icon" viewBox="0 0 1024 1024" version="1.1" xmlns="http://www.w3.org/2000/svg" p-id="9377" width="32" height="32" xmlns:xlink="http://www.w3.org/1999/xlink"><path d="M882.090667 570.453333a389.632 389.632 0 0 0-233.898667-357.248 155.818667 155.818667 0 0 0-311.338667 0 389.674667 389.674667 0 0 0-225.152 439.765334 155.818667 155.818667 0 0 0 179.285334 250.88 387.754667 387.754667 0 0 0 201.514666 56.149333 387.754667 387.754667 0 0 0 220.544-68.352 155.818667 155.818667 0 0 0 164.864-263.722667 392.533333 392.533333 0 0 0 4.181334-57.472z m-80.341334 38.954667a155.818667 155.818667 0 0 0-138.709333 221.952 310.186667 310.186667 0 0 1-170.496 50.730667 310.272 310.272 0 0 1-140.970667-33.621334 155.818667 155.818667 0 0 0-167.722666-234.88 311.637333 311.637333 0 0 1 170.154666-322.389333 155.818667 155.818667 0 0 0 277.077334 0 311.68 311.68 0 0 1 170.666666 318.208z" p-id="9378" fill="#ffffff"></path></svg>