<?xml version="1.0" standalone="no"?><!DOCTYPE svg PUBLIC "-//W3C//DTD SVG 1.1//EN" "http://www.w3.org/Graphics/SVG/1.1/DTD/svg11.dtd"><svg t="1735733607581" class="icon" viewBox="0 0 1024 1024" version="1.1" xmlns="http://www.w3.org/2000/svg" p-id="13612" xmlns:xlink="http://www.w3.org/1999/xlink" width="32" height="32"><path d="M896.4 296.6l-0.1 0.1c-20.5-21.1-48.8-32.7-78.2-32.1h-96.2l-22.1-58.2c-6.3-14.5-16.5-27-29.5-36-12.9-9.8-28.5-15.4-44.6-16H404.8c-16 0.5-31.5 6.1-44.1 16-13.1 9-23.3 21.5-29.7 36l-24 58.2h-98.2c-29.4-0.6-57.7 11-78.2 32.1-21.1 20.5-32.7 48.8-32.1 78.1v386.9c-0.6 29.4 11 57.7 32.1 78.2 20.5 21.1 48.8 32.7 78.2 32.1h609.4c29.3 0.2 57.5-11.4 78.2-32.1 20.7-20.7 32.3-48.9 32.1-78.2V374.8c0.6-29.4-11-57.7-32.1-78.2zM513.5 743.7c-100.7 0-182.4-81.6-182.4-182.3 0-100.7 81.6-182.4 182.3-182.4 100.7 0 182.4 81.6 182.4 182.3-0.3 100.6-81.7 182.1-182.3 182.4z m0-302.7C445.8 441 391 495.9 391 563.5c0 67.7 54.9 122.5 122.5 122.5 67.7 0 122.5-54.9 122.5-122.5 0.3-32.6-12.5-63.9-35.6-86.9-23-23.1-54.3-35.9-86.9-35.6z" p-id="13613" fill="#ffffff"></path></svg>