<?xml version="1.0" standalone="no"?><!DOCTYPE svg PUBLIC "-//W3C//DTD SVG 1.1//EN" "http://www.w3.org/Graphics/SVG/1.1/DTD/svg11.dtd"><svg t="1735733577459" class="icon" viewBox="0 0 1024 1024" version="1.1" xmlns="http://www.w3.org/2000/svg" p-id="10544" xmlns:xlink="http://www.w3.org/1999/xlink" width="32" height="32"><path d="M915.456 870.4H108.544c-24.576 0-45.056-19.968-45.056-45.056V243.2C64 193.536 103.936 153.6 153.6 153.6h268.8c49.664 0 89.6 39.936 89.6 89.6h403.456c24.576 0 45.056 19.968 45.056 44.544v537.6c-0.512 25.088-20.48 45.056-45.056 45.056zM847.872 332.8H176.128C163.84 332.8 153.6 343.04 153.6 355.328s10.24 22.528 22.528 22.528h672.256c12.288 0 22.528-10.24 22.528-22.528-0.512-12.288-10.24-22.528-23.04-22.528z" fill="#ffffff" p-id="10545"></path></svg>